<svg xmlns="http://www.w3.org/2000/svg" viewBox="0 0 128 128" role="img" aria-label="Coin">
  <defs>
    <radialGradient id="coin-face" cx="35%" cy="28%" r="68%">
      <stop offset="0" stop-color="#fff8bf"/>
      <stop offset="0.36" stop-color="#ffd95f"/>
      <stop offset="0.74" stop-color="#f0a321"/>
      <stop offset="1" stop-color="#b96312"/>
    </radialGradient>
    <linearGradient id="coin-rim" x1="18" y1="16" x2="108" y2="116" gradientUnits="userSpaceOnUse">
      <stop offset="0" stop-color="#fff5a8"/>
      <stop offset="0.48" stop-color="#ffbf36"/>
      <stop offset="1" stop-color="#8e490e"/>
    </linearGradient>
    <linearGradient id="coin-shine" x1="36" y1="18" x2="88" y2="92" gradientUnits="userSpaceOnUse">
      <stop offset="0" stop-color="#ffffff" stop-opacity="0.9"/>
      <stop offset="1" stop-color="#ffffff" stop-opacity="0"/>
    </linearGradient>
    <filter id="coin-shadow" x="-18%" y="-12%" width="136%" height="140%" color-interpolation-filters="sRGB">
      <feDropShadow dx="0" dy="8" stdDeviation="7" flood-color="#3b1e06" flood-opacity="0.34"/>
    </filter>
  </defs>
  <circle cx="64" cy="64" r="54" fill="url(#coin-rim)" filter="url(#coin-shadow)"/>
  <circle cx="64" cy="64" r="44" fill="url(#coin-face)"/>
  <circle cx="64" cy="64" r="33" fill="none" stroke="#ffe985" stroke-width="5" stroke-opacity="0.82"/>
  <path d="M64 37c9 0 17 3 22 8l-9 10c-4-4-8-5-13-5-9 0-15 6-15 14s6 14 15 14c5 0 10-2 13-5l9 10c-5 5-13 8-22 8-18 0-31-12-31-27s13-27 31-27Z" fill="#9b5415" opacity="0.36"/>
  <path d="M38 33c9-9 23-14 36-12 8 1 15 4 20 8-20-3-41 2-57 19-7 7-12 16-15 25-1-15 4-30 16-40Z" fill="url(#coin-shine)" opacity="0.72"/>
  <path d="M29 79c10 21 35 31 57 22 8-3 15-9 20-15-6 17-22 30-41 30-18 0-34-10-42-25l6-12Z" fill="#7b3a0b" opacity="0.2"/>
</svg>
