<svg xmlns="http://www.w3.org/2000/svg" viewBox="0 0 160 128" role="img" aria-label="Stacked coins">
  <defs>
    <linearGradient id="edge" x1="24" y1="28" x2="132" y2="110" gradientUnits="userSpaceOnUse">
      <stop offset="0" stop-color="#fff1a4"/>
      <stop offset="0.45" stop-color="#ffc13b"/>
      <stop offset="1" stop-color="#8c470d"/>
    </linearGradient>
    <radialGradient id="face" cx="35%" cy="28%" r="72%">
      <stop offset="0" stop-color="#fff9c6"/>
      <stop offset="0.38" stop-color="#ffdc63"/>
      <stop offset="0.78" stop-color="#ee9b1e"/>
      <stop offset="1" stop-color="#ab5a10"/>
    </radialGradient>
    <filter id="shadow" x="-14%" y="-18%" width="128%" height="150%" color-interpolation-filters="sRGB">
      <feDropShadow dx="0" dy="9" stdDeviation="8" flood-color="#2d1705" flood-opacity="0.32"/>
    </filter>
  </defs>
  <g filter="url(#shadow)">
    <ellipse cx="59" cy="92" rx="42" ry="16" fill="#9b4d0e" opacity="0.35"/>
    <path d="M25 76h76v17c0 9-17 17-38 17s-38-8-38-17V76Z" fill="#b76413"/>
    <ellipse cx="63" cy="76" rx="38" ry="17" fill="url(#edge)"/>
    <ellipse cx="63" cy="73" rx="28" ry="11" fill="#ffe179" opacity="0.78"/>

    <path d="M51 55h76v17c0 9-17 17-38 17s-38-8-38-17V55Z" fill="#c97716"/>
    <ellipse cx="89" cy="55" rx="38" ry="17" fill="url(#edge)"/>
    <ellipse cx="89" cy="52" rx="28" ry="11" fill="#ffe98e" opacity="0.8"/>

    <circle cx="87" cy="55" r="38" fill="url(#edge)"/>
    <circle cx="87" cy="55" r="31" fill="url(#face)"/>
    <circle cx="87" cy="55" r="22" fill="none" stroke="#ffe985" stroke-width="4" stroke-opacity="0.8"/>
    <path d="M87 36c7 0 13 2 17 6l-7 8c-3-3-6-4-10-4-7 0-12 4-12 10s5 10 12 10c4 0 8-1 10-4l7 8c-4 4-10 6-17 6-14 0-24-9-24-21s10-20 24-20Z" fill="#9b5415" opacity="0.35"/>
    <path d="M70 36c8-7 19-10 30-7 6 1 11 3 15 7-15-2-31 1-44 13-5 5-8 11-10 18-1-12 2-23 9-31Z" fill="#fff" opacity="0.36"/>
  </g>
</svg>
