<svg xmlns="http://www.w3.org/2000/svg" viewBox="0 0 512 512" role="img" aria-label="Archer avatar">
  <rect width="512" height="512" rx="92" fill="#1d2433"/>
  <circle cx="256" cy="276" r="164" fill="#55713a"/>
  <path d="M168 228c22-66 78-104 140-86 62 18 94 82 76 146-18 70-80 116-144 98-66-18-96-92-72-158z" fill="#c09a6b"/>
  <path d="M166 204c44-62 134-82 206-18-18-54-64-82-120-82-54 0-94 34-86 100z" fill="#6faa44"/>
  <path d="M146 332c-26-72 18-158 96-188" fill="none" stroke="#f5d27a" stroke-width="16" stroke-linecap="round"/>
  <path d="M110 228c84 64 170 104 276 120" fill="none" stroke="#ffeaa0" stroke-width="12" stroke-linecap="round"/>
  <path d="M370 346l42-18-36 34z" fill="#ffeaa0"/>
  <circle cx="226" cy="284" r="14" fill="#1b1f24"/>
  <circle cx="306" cy="284" r="14" fill="#1b1f24"/>
  <path d="M240 328c20 16 50 16 70 0" fill="none" stroke="#1b1f24" stroke-width="12" stroke-linecap="round"/>
</svg>
