<svg xmlns="http://www.w3.org/2000/svg" viewBox="0 0 512 512" role="img" aria-label="Aurora avatar">
  <rect width="512" height="512" rx="92" fill="#12203b"/>
  <circle cx="256" cy="276" r="166" fill="#3a4fc2"/>
  <path d="M128 244c58-100 190-126 278-44-22 118-120 204-228 168-54-18-76-72-50-124z" fill="#b9ecff"/>
  <path d="M150 214c54-68 160-86 246-30" fill="none" stroke="#83ffcb" stroke-width="24" stroke-linecap="round"/>
  <path d="M158 250c70-44 154-50 226-14" fill="none" stroke="#ff7bd5" stroke-width="18" stroke-linecap="round"/>
  <path d="M188 180l-22-78 72 44zM334 178l46-66 20 84z" fill="#dffbff" stroke="#ffffff" stroke-width="10" stroke-linejoin="round"/>
  <circle cx="226" cy="286" r="14" fill="#13203a"/>
  <circle cx="306" cy="286" r="14" fill="#13203a"/>
  <path d="M240 326c20 16 50 16 70 0" fill="none" stroke="#13203a" stroke-width="12" stroke-linecap="round"/>
</svg>
