<svg xmlns="http://www.w3.org/2000/svg" viewBox="0 0 512 512" role="img" aria-label="Blaze avatar">
  <rect width="512" height="512" rx="92" fill="#301516"/>
  <circle cx="256" cy="278" r="166" fill="#b6422a"/>
  <path d="M202 130c10 62-6 94-46 128 54-16 90-50 108-110 56 54 84 126 54 198-30 72-132 92-184 30-48-58-18-160 68-246z" fill="#ff8a32"/>
  <path d="M236 206c32 38 42 88 18 132 32-14 52-44 62-88 52 78 8 156-62 156-70 0-106-72-18-200z" fill="#ffe06a"/>
  <circle cx="222" cy="308" r="13" fill="#35100d"/>
  <circle cx="294" cy="308" r="13" fill="#35100d"/>
  <path d="M234 348c20 16 50 16 70 0" fill="none" stroke="#35100d" stroke-width="13" stroke-linecap="round"/>
  <path d="M346 178c48 40 70 100 54 160" fill="none" stroke="#ffcf63" stroke-width="16" stroke-linecap="round" opacity=".75"/>
</svg>
