<svg xmlns="http://www.w3.org/2000/svg" viewBox="0 0 512 512" role="img" aria-label="Clover avatar">
  <rect width="512" height="512" rx="92" fill="#112b24"/>
  <circle cx="256" cy="274" r="168" fill="#227a57"/>
  <path d="M254 84c-44-50-122-4-94 62-70-14-108 66-44 104-58 42-12 120 54 92-6 72 86 94 112 28 38 58 124 16 94-50 72 8 104-80 36-110 50-52-8-126-70-88-2-66-86-86-88-38z" fill="#6be06c" stroke="#caffb7" stroke-width="14" stroke-linejoin="round"/>
  <path d="M254 224c-52 22-78 76-66 132 12 58 66 96 126 84 66-14 108-82 86-146-20-58-86-94-146-70z" fill="#caffb7"/>
  <circle cx="238" cy="318" r="13" fill="#163324"/>
  <circle cx="310" cy="318" r="13" fill="#163324"/>
  <path d="M250 358c18 14 48 14 66 0" fill="none" stroke="#163324" stroke-width="12" stroke-linecap="round"/>
  <path d="M184 402c30 20 84 28 130 16" fill="none" stroke="#6be06c" stroke-width="20" stroke-linecap="round"/>
</svg>
