<svg xmlns="http://www.w3.org/2000/svg" viewBox="0 0 512 512" role="img" aria-label="Comet avatar">
  <rect width="512" height="512" rx="92" fill="#17203f"/>
  <path d="M90 360c92 20 198-12 282-96 28-28 42-66 18-98-28-38-82-24-110 8-78 90-136 144-190 186z" fill="#ff7f4d" opacity=".85"/>
  <path d="M124 308c88 12 158-24 220-96" fill="none" stroke="#ffe07a" stroke-width="34" stroke-linecap="round"/>
  <circle cx="292" cy="248" r="132" fill="#7dd9ff"/>
  <circle cx="292" cy="248" r="104" fill="#d4f8ff"/>
  <path d="M224 180c48-42 126-36 166 16" fill="none" stroke="#ffffff" stroke-width="18" stroke-linecap="round" opacity=".8"/>
  <circle cx="260" cy="250" r="13" fill="#17203f"/>
  <circle cx="330" cy="250" r="13" fill="#17203f"/>
  <path d="M270 290c18 16 46 16 64 0" fill="none" stroke="#17203f" stroke-width="12" stroke-linecap="round"/>
</svg>
