<svg xmlns="http://www.w3.org/2000/svg" viewBox="0 0 512 512" role="img" aria-label="Luma avatar">
  <rect width="512" height="512" rx="92" fill="#1a2545"/>
  <circle cx="252" cy="270" r="164" fill="#6b70ff"/>
  <path d="M178 198c34-58 128-70 176-12 46 54 38 142-18 184-58 44-146 26-184-36-26-44-18-96 26-136z" fill="#cbd6ff"/>
  <path d="M338 162c34-18 72 12 58 50-12 34-54 48-86 26" fill="#ffcf5a" stroke="#fff0a8" stroke-width="12" stroke-linejoin="round"/>
  <path d="M370 118l42 42" stroke="#ff6fb4" stroke-width="18" stroke-linecap="round"/>
  <circle cx="224" cy="292" r="13" fill="#202b50"/>
  <circle cx="304" cy="292" r="13" fill="#202b50"/>
  <path d="M238 332c18 16 48 16 66 0" fill="none" stroke="#202b50" stroke-width="13" stroke-linecap="round"/>
  <path d="M164 398c54 34 138 34 194-2" fill="none" stroke="#ff78bd" stroke-width="18" stroke-linecap="round"/>
</svg>
