<svg xmlns="http://www.w3.org/2000/svg" viewBox="0 0 512 512" role="img" aria-label="Nova avatar">
  <rect width="512" height="512" rx="92" fill="#111b34"/>
  <circle cx="256" cy="276" r="166" fill="#4a4fc4"/>
  <path d="M148 258c18-78 86-128 162-104 76 24 114 110 72 180-44 74-156 90-214 22-24-28-30-64-20-98z" fill="#a8f2de"/>
  <path d="M162 178c46-50 138-66 212-10" fill="none" stroke="#7affff" stroke-width="22" stroke-linecap="round"/>
  <path d="M194 142l-46-58 86 20zM328 142l46-58-86 20z" fill="#d7fff4" stroke="#ffffff" stroke-width="10" stroke-linejoin="round"/>
  <ellipse cx="222" cy="284" rx="22" ry="18" fill="#111b34"/>
  <ellipse cx="304" cy="284" rx="22" ry="18" fill="#111b34"/>
  <circle cx="230" cy="278" r="6" fill="#9affff"/>
  <circle cx="312" cy="278" r="6" fill="#9affff"/>
  <path d="M240 334c22 14 52 14 74 0" fill="none" stroke="#111b34" stroke-width="12" stroke-linecap="round"/>
  <path d="M118 386c42-24 84-24 126 0s84 24 126 0" fill="none" stroke="#ff73d7" stroke-width="15" stroke-linecap="round"/>
</svg>
