<svg xmlns="http://www.w3.org/2000/svg" viewBox="0 0 512 512" role="img" aria-label="Prism avatar">
  <rect width="512" height="512" rx="92" fill="#171a3a"/>
  <circle cx="256" cy="276" r="166" fill="#6248c7"/>
  <path d="M256 104l126 82v144l-126 78-126-78V186z" fill="#d5f2ff" stroke="#ffffff" stroke-width="14" stroke-linejoin="round"/>
  <path d="M256 104v304M130 186l126 74 126-74M130 330l126-70 126 70" fill="none" stroke="#8d9bff" stroke-width="10" opacity=".75"/>
  <path d="M172 210l168 92M340 210l-168 92" stroke="#ff77b7" stroke-width="16" stroke-linecap="round" opacity=".65"/>
  <circle cx="222" cy="276" r="13" fill="#1a2140"/>
  <circle cx="290" cy="276" r="13" fill="#1a2140"/>
  <path d="M234 318c18 14 46 14 64 0" fill="none" stroke="#1a2140" stroke-width="12" stroke-linecap="round"/>
  <path d="M96 394c64 24 100 24 160 0 60 24 100 24 160 0" fill="none" stroke="#78f0ff" stroke-width="14" stroke-linecap="round"/>
</svg>
