<svg xmlns="http://www.w3.org/2000/svg" viewBox="0 0 512 512" role="img" aria-label="Sparky avatar">
  <rect width="512" height="512" rx="92" fill="#172246"/>
  <circle cx="256" cy="270" r="168" fill="#284fc2"/>
  <path d="M236 58c26 56 8 86-34 122 58-8 88-42 94-98 38 48 40 108 6 154 66-28 90-96 70-160 88 62 110 184 54 274-70 112-242 116-316 8-64-94-30-236 70-294-16 56 4 92 56 118-30-50-18-84 0-124z" fill="#ffe35f"/>
  <path d="M198 262c28-24 92-24 120 0 30 28 28 92-2 122-34 34-90 34-122 0-30-30-30-94 4-122z" fill="#fff4a3"/>
  <circle cx="218" cy="314" r="14" fill="#172246"/>
  <circle cx="294" cy="314" r="14" fill="#172246"/>
  <path d="M230 354c18 18 52 18 72 0" fill="none" stroke="#172246" stroke-width="14" stroke-linecap="round"/>
  <path d="M160 198c-26 18-44 44-54 76" fill="none" stroke="#9ff8ff" stroke-width="18" stroke-linecap="round" opacity=".75"/>
  <path d="M352 202c30 20 48 52 54 90" fill="none" stroke="#9ff8ff" stroke-width="18" stroke-linecap="round" opacity=".65"/>
</svg>
