<svg xmlns="http://www.w3.org/2000/svg" viewBox="0 0 512 512" role="img" aria-label="Sprout avatar">
  <rect width="512" height="512" rx="92" fill="#14301e"/>
  <circle cx="256" cy="286" r="158" fill="#54b85c"/>
  <path d="M252 160c-34-64-104-82-154-38 22 64 90 94 154 38zM264 160c44-58 116-60 154-8-34 54-102 68-154 8z" fill="#8df17d" stroke="#d6ffc8" stroke-width="12" stroke-linejoin="round"/>
  <path d="M256 154v82" stroke="#d6ffc8" stroke-width="18" stroke-linecap="round"/>
  <path d="M152 278c18-56 68-92 122-92 70 0 124 56 124 126 0 72-56 124-126 124-76 0-138-62-120-158z" fill="#b3f28d"/>
  <circle cx="226" cy="316" r="14" fill="#12331d"/>
  <circle cx="310" cy="316" r="14" fill="#12331d"/>
  <path d="M240 356c22 18 54 18 76 0" fill="none" stroke="#12331d" stroke-width="13" stroke-linecap="round"/>
  <path d="M184 406c42 24 104 26 154 4" fill="none" stroke="#4ca34d" stroke-width="20" stroke-linecap="round"/>
</svg>
