<svg xmlns="http://www.w3.org/2000/svg" viewBox="0 0 512 512" role="img" aria-label="Talon avatar">
  <rect width="512" height="512" rx="92" fill="#18243d"/>
  <circle cx="256" cy="276" r="164" fill="#8a5b35"/>
  <path d="M148 238c52-96 164-122 248-44-12 124-102 214-214 182-58-16-80-80-34-138z" fill="#c58b4b"/>
  <path d="M206 176c38-44 114-50 164-6" fill="none" stroke="#f0d3a6" stroke-width="22" stroke-linecap="round"/>
  <path d="M274 256l86 34-86 36z" fill="#f3d15b" stroke="#fff3a6" stroke-width="10" stroke-linejoin="round"/>
  <circle cx="226" cy="262" r="15" fill="#1d1720"/>
  <circle cx="320" cy="254" r="12" fill="#1d1720"/>
  <path d="M174 378c52 30 128 34 190 0" fill="none" stroke="#5b3924" stroke-width="20" stroke-linecap="round"/>
  <path d="M132 210c-42-18-76 16-58 54 34-12 58-30 58-54zM402 206c42-22 82 8 68 48-34-8-60-24-68-48z" fill="#f0d3a6"/>
</svg>
