<svg xmlns="http://www.w3.org/2000/svg" viewBox="0 0 512 512" role="img" aria-label="Tidal avatar">
  <rect width="512" height="512" rx="92" fill="#102d3c"/>
  <circle cx="256" cy="278" r="166" fill="#1b8bc6"/>
  <path d="M118 328c54 56 150 74 224 28 68-42 74-128 16-168-52-36-132-14-158 42 46-30 94-24 118 8 24 32 8 78-34 96-52 22-110 4-166-6z" fill="#d9fbff"/>
  <path d="M154 238c40-70 128-106 218-72" fill="none" stroke="#7df0ff" stroke-width="24" stroke-linecap="round"/>
  <path d="M198 308c22-40 82-54 116-22 32 30 14 78-30 92-44 14-86-14-86-70z" fill="#a6f4ff"/>
  <circle cx="232" cy="312" r="13" fill="#102d3c"/>
  <circle cx="304" cy="312" r="13" fill="#102d3c"/>
  <path d="M242 350c20 16 50 16 70 0" fill="none" stroke="#102d3c" stroke-width="12" stroke-linecap="round"/>
</svg>
