<svg xmlns="http://www.w3.org/2000/svg" viewBox="0 0 512 512" role="img" aria-label="Whiskers avatar">
  <rect width="512" height="512" rx="92" fill="#221a2d"/>
  <circle cx="256" cy="280" r="160" fill="#8175b8"/>
  <path d="M154 184l-34-84 96 50zM358 184l34-84-96 50z" fill="#b8a9ef" stroke="#eee8ff" stroke-width="12" stroke-linejoin="round"/>
  <path d="M156 274c0-76 44-128 100-128s100 52 100 128c0 82-46 138-100 138s-100-56-100-138z" fill="#d8d0ff"/>
  <circle cx="220" cy="280" r="15" fill="#211733"/>
  <circle cx="292" cy="280" r="15" fill="#211733"/>
  <path d="M246 318l20 18 20-18z" fill="#6f3a62"/>
  <path d="M214 350c26 22 58 22 84 0" fill="none" stroke="#211733" stroke-width="12" stroke-linecap="round"/>
  <path d="M128 314h82M126 350h78M302 314h82M308 350h78" stroke="#eee8ff" stroke-width="9" stroke-linecap="round" opacity=".8"/>
</svg>
